<svg width="512" height="511" viewBox="0 0 512 511" fill="none" xmlns="http://www.w3.org/2000/svg">
<path fill-rule="evenodd" clip-rule="evenodd" d="M288.089 0.321832C235.119 3.77983 188.237 42.9018 174.721 94.9248C159.448 153.707 187.227 214.234 242.045 241.614C259.159 250.163 277.18 254.254 297.756 254.262C332.918 254.276 362.373 242.107 387.361 217.244C411.368 193.357 423.438 166.167 424.942 132.586C426.185 104.818 418.934 79.0838 403.248 55.5978C396.432 45.3918 378.97 28.0418 368.756 21.3258C344.305 5.24783 317.91 -1.62517 288.089 0.321832ZM75.1633 151.518C69.8433 154.327 65.3273 160.421 64.1853 166.335C63.7223 168.731 63.3243 180.232 63.3003 191.892L63.2563 213.093L38.4303 213.392L13.6043 213.691L9.48528 216.419C-4.28072 225.535 -2.81073 244.841 12.2563 252.808C15.3123 254.423 18.7603 254.704 39.4153 255.016L63.0743 255.373L63.4353 279.032C63.7683 300.876 63.9593 302.998 65.9283 306.691C73.7133 321.29 93.0583 322.507 102.028 308.962L104.756 304.843L105.054 280.107L105.353 255.372L129.554 255.031L153.756 254.691L158.528 251.886C170.24 245.001 172.724 230.488 163.909 220.448C157.995 213.713 155.702 213.238 129.006 213.213L105.256 213.191L105.234 189.441C105.215 168.46 104.996 165.225 103.36 161.691C98.2823 150.723 85.4433 146.091 75.1633 151.518ZM220.756 298.884C218.556 299.081 211.913 300.145 205.993 301.249C144.31 312.754 95.9263 363.36 86.7433 425.976C85.5203 434.318 85.2353 443.399 85.4633 466.774L85.7563 496.842L88.4843 500.961C89.9843 503.227 93.3593 506.343 95.9843 507.886L100.756 510.691H297.756H494.756L498.756 508.538C503.413 506.032 506.296 503.078 508.855 498.191C512.513 491.203 511.773 437.406 507.747 417.691C496.468 362.456 453.445 317.27 398.756 303.219C380.538 298.539 372.896 298.178 295.967 298.359C256.801 298.452 222.956 298.688 220.756 298.884Z" fill="#cbcbcb"/>
</svg>
