<svg width="511" height="102" viewBox="0 0 511 102" fill="none" xmlns="http://www.w3.org/2000/svg">
<path fill-rule="evenodd" clip-rule="evenodd" d="M39.3608 1.34384C22.1528 5.08284 6.58775 19.8268 1.60575 37.1068C-0.53525 44.5328 -0.53525 57.1268 1.60575 64.5528C8.57675 88.7348 33.6798 104.966 57.7968 100.885C79.4318 97.2238 96.9697 79.6898 100.277 58.4158C104.337 32.3028 86.4858 6.83584 60.2198 1.26784C52.1518 -0.44216 47.5038 -0.425156 39.3608 1.34384ZM244.509 1.31383C218.851 6.89583 200.747 33.1428 205.043 58.5288C209.675 85.8998 236.236 105.379 262.797 100.885C284.242 97.2558 301.524 79.9738 305.153 58.5288C309.49 32.8988 291.284 6.79284 265.22 1.26784C257.184 -0.43516 252.5 -0.42517 244.509 1.31383ZM449.509 1.31383C435.114 4.44583 420.839 15.6838 414.348 28.9938C399.684 59.0648 418.81 95.2008 452.399 100.885C476.516 104.966 501.619 88.7348 508.59 64.5528C510.731 57.1268 510.731 44.5328 508.59 37.1068C503.539 19.5848 488.01 5.03783 470.368 1.29883C462.184 -0.435169 457.531 -0.43217 449.509 1.31383Z" fill="#cbcbcb"/>
</svg>
